<svg width="102" height="71" viewBox="0 0 102 71" fill="none" xmlns="http://www.w3.org/2000/svg">
<path d="M85.3695 29.4375C84.5992 29.4375 82.0164 29.4564 81.2914 29.4943L66.5875 29.8164C66.4289 29.8164 66.2703 29.7596 66.2023 29.6459L44.1578 2.04258C43.5008 1.17109 42.3227 0.640625 41.0992 0.640625H35.7297C34.4609 0.640625 34.0305 1.70156 34.4836 2.68672L45.8344 29.7406C45.9477 29.9869 45.7437 30.2521 45.4266 30.2521L17.6953 30.5932C17.1062 30.6121 16.5625 30.3848 16.2 30.0059L7.81718 21.4805C7.1375 20.7416 6.07265 20.3248 4.9625 20.3248H1.15625C0.521871 20.3248 0.0914028 20.8363 0.295309 21.3289L4.8039 34.3443C5.14375 35.0643 5.14375 35.8789 4.8039 36.5988L0.295309 49.6143C0.0914028 50.1068 0.521871 50.6184 1.15625 50.6184H4.93984C6.05 50.6184 7.11484 50.1826 7.79453 49.4627L16.3359 40.8047C16.6984 40.4258 17.2648 40.1984 17.8312 40.2174L45.4039 40.7289C45.7211 40.7479 45.925 40.9941 45.8117 41.2404L34.4609 68.3133C34.0078 69.2984 34.4383 70.3594 35.707 70.3594H41.0766C42.3227 70.3594 43.4781 69.8289 44.1352 68.9574L66.2023 41.373C66.293 41.2594 66.4289 41.2025 66.5875 41.2025L81.2914 41.5246C82.0391 41.5625 84.5992 41.5814 85.3695 41.5814C95.4063 41.5814 101.75 38.8723 101.75 35.5189C101.75 32.1656 95.4289 29.4375 85.3695 29.4375Z" fill="black"/>
</svg>
