<svg width="79" height="78" viewBox="0 0 79 78" fill="none" xmlns="http://www.w3.org/2000/svg">
<path d="M79 26.8127C79 41.6208 66.8417 53.625 51.8438 53.625C50.1125 53.625 48.4199 53.4632 46.7786 53.1575L43.0737 57.2729C42.7262 57.6588 42.3 57.9677 41.8229 58.1792C41.3459 58.3907 40.8288 58.5 40.3059 58.5H34.5625V64.5938C34.5625 66.6131 32.9046 68.25 30.8594 68.25H24.6875V74.3438C24.6875 76.3631 23.0296 78 20.9844 78H3.70313C1.65792 78 0 76.3631 0 74.3438V62.452C0 61.4823 0.390217 60.5522 1.08455 59.8665L26.0501 35.217C25.1671 32.5732 24.6875 29.7483 24.6875 26.8125C24.6875 12.0044 36.8456 0.000152345 51.8436 1.45528e-09C66.8858 -0.000152342 79 11.9607 79 26.8127ZM51.8438 19.5C51.8438 23.5386 55.1596 26.8125 59.25 26.8125C63.3404 26.8125 66.6562 23.5386 66.6562 19.5C66.6562 15.4614 63.3404 12.1875 59.25 12.1875C55.1596 12.1875 51.8438 15.4614 51.8438 19.5Z" fill="black"/>
</svg>
